# xmcd
#
# Track frame offsets: 
#        150
#        11977
#        32332
#        49473
#        61910
#        87496
#        112038
#        143647
#        159738
#        177968
#        197072
#        213543
#        227634
#
# Disc length: 3245 seconds
#
# Revision: 0
# Processed by: cddbd v1.5.2PL0 Copyright (c) Steve Scherf et al.
# Submitted via: ExactAudioCopy v0.95a5
#
DISCID=b80cab0d
DTITLE=Balding and Croft - 40-40 Blues
DYEAR=2007
DGENRE=Blues
TTITLE0=01 Lonesome Road
TTITLE1=02 Let Me Go Home Whiskey
TTITLE2=03 Girl I'm Lovin'
TTITLE3=04 Don't Let Your Deal Go Down
TTITLE4=05 Goin' Down Slow
TTITLE5=06 Folsom Prison Blues
TTITLE6=07 Catfish
TTITLE7=08 Prodigal Son
TTITLE8=09 Bluebird Blues
TTITLE9=10 Poor Boy A Long Way From Home
TTITLE10=11 Stealin', Stealin'
TTITLE11=12 Bulldoze Blues
TTITLE12=13 Sporting Life Blues
EXTD=
EXTT0=
EXTT1=
EXTT2=
EXTT3=
EXTT4=
EXTT5=
EXTT6=
EXTT7=
EXTT8=
EXTT9=
EXTT10=
EXTT11=
EXTT12=
PLAYORDER=
